<svg width="280" height="120" viewBox="0 0 280 120" fill="none" xmlns="http://www.w3.org/2000/svg">
<path d="M21.913 37.0771C21.372 37.0771 21.2367 36.7694 21.5072 36.3078L24.3478 32.154C24.6184 31.6925 25.2947 31.3848 25.8357 31.3848H74.1256C74.6667 31.3848 74.8019 31.8463 74.5314 32.3078L72.2319 36.3078C71.9614 36.7694 71.285 37.2309 70.8792 37.2309L21.913 37.0771Z" fill="#00ACD7"/>
<path d="M1.48793 51.2308C0.94687 51.2308 0.811603 50.9231 1.08213 50.4615L3.92271 46.3077C4.19324 45.8462 4.86957 45.5385 5.41063 45.5385H67.0918C67.6328 45.5385 67.9034 46 67.7681 46.4615L66.686 50.1538C66.5507 50.7692 66.0097 51.0769 65.4686 51.0769L1.48793 51.2308Z" fill="#00ACD7"/>
<path d="M34.2222 65.3846C33.6812 65.3846 33.5459 64.9231 33.8164 64.4615L35.7101 60.6154C35.9807 60.1538 36.5217 59.6923 37.0628 59.6923H64.1159C64.657 59.6923 64.9275 60.1538 64.9275 60.7692L64.657 64.4615C64.657 65.0769 64.1159 65.5385 63.7101 65.5385L34.2222 65.3846Z" fill="#00ACD7"/>
<path d="M174.628 34.3078C166.106 36.7694 160.29 38.6154 151.903 41.0769C149.874 41.6923 149.739 41.8462 147.981 39.5385C145.952 36.9231 144.464 35.2309 141.623 33.6925C133.101 28.9232 124.85 30.3078 117.14 36.0002C107.942 42.7694 103.208 52.7694 103.343 65.2309C103.478 77.5386 110.918 87.6925 121.604 89.3848C130.802 90.7694 138.512 87.0769 144.599 79.2308C145.816 77.5385 146.899 75.6925 148.251 73.5386C143.382 73.5386 137.295 73.5386 122.145 73.5386C119.304 73.5386 118.628 71.5386 119.575 68.9232C121.333 64.154 124.58 56.154 126.473 52.154C126.879 51.2309 127.826 49.6925 129.855 49.6925C136.754 49.6925 162.184 49.6925 179.092 49.6925C178.821 53.8463 178.821 58.0002 178.28 62.154C176.792 73.2309 173.14 83.3846 167.188 92.3077C157.449 106.923 144.734 116 128.638 118.462C115.382 120.462 103.072 117.538 92.2512 108.308C82.2415 99.6923 76.5604 88.3077 75.0725 74.1538C73.314 57.3846 77.6425 42.3078 86.57 29.0771C96.1739 14.7693 108.889 5.69238 124.444 2.46161C137.159 -0.153773 149.333 1.53854 160.29 10.0001C167.459 15.3848 172.599 22.7692 175.981 31.6923C176.792 33.0769 176.251 33.8463 174.628 34.3078Z" fill="#00ACD7"/>
<path d="M219.401 119.385C207.092 119.077 195.865 115.077 186.396 105.846C178.415 98.0002 173.411 88.0002 171.787 76.154C169.353 58.7694 173.546 43.3848 182.744 29.6925C192.618 14.9232 204.522 7.23086 220.618 4.00009C234.415 1.23086 247.401 2.76932 259.169 11.8462C269.855 20.154 276.483 31.3848 278.242 46.154C280.541 66.9232 275.266 83.8463 262.686 98.3078C253.758 108.616 242.802 115.077 230.222 118C226.57 118.769 222.918 118.923 219.401 119.385ZM251.594 57.2309C251.459 55.2309 251.459 53.6925 251.188 52.154C248.754 36.9232 236.444 28.3078 223.594 31.6925C211.014 34.9232 202.899 44.0002 199.923 58.4617C197.488 70.4617 202.628 82.6155 212.367 87.5386C219.807 91.2309 227.246 90.7694 234.415 86.6155C245.101 80.3078 250.918 70.4617 251.594 57.2309Z" fill="#00ACD7"/>
</svg>
