<svg width="97" height="94" viewBox="0 0 97 94" fill="none" xmlns="http://www.w3.org/2000/svg">
<path d="M88.6473 72.2809C83.4109 72.1517 79.3526 72.67 75.9488 74.0942C74.9669 74.4826 73.3958 74.483 73.2648 75.713C73.7888 76.2314 73.8541 77.073 74.3124 77.7851C75.0983 79.0797 76.4723 80.8285 77.7162 81.7352C79.0906 82.7711 80.4654 83.8069 81.9051 84.7136C84.458 86.2678 87.3382 87.1741 89.8254 88.7283C91.266 89.6341 92.7052 90.8004 94.1453 91.7716C94.8656 92.2892 95.3235 93.1312 96.24 93.455V93.2608C95.7817 92.6779 95.6507 91.8362 95.1929 91.1887C94.5387 90.5412 93.8838 89.9583 93.2292 89.3108C91.3308 86.7857 88.9746 84.584 86.4217 82.7711C84.3274 81.3464 79.7451 79.4039 78.8943 77.008C78.8943 77.008 78.8286 76.9434 78.7633 76.8789C80.2034 76.7493 81.9051 76.2313 83.2799 75.8426C85.5056 75.2597 87.5345 75.3893 89.8254 74.8067C90.8726 74.5476 91.9201 74.2238 92.9672 73.9001V73.3175C91.7895 72.1517 90.9383 70.5979 89.6944 69.4971C86.3564 66.6474 82.6906 63.8636 78.8943 61.5327C76.8649 60.2377 74.2467 59.3956 72.0868 58.2951C71.3016 57.906 69.9921 57.7122 69.5342 57.0647C68.3557 55.6401 67.7011 53.7626 66.8503 52.0788C64.9528 48.5171 63.1192 44.5678 61.4829 40.8123C60.3052 38.2868 59.5849 35.7614 58.1448 33.4305C51.403 22.4228 44.0719 15.7535 32.8134 9.21338C30.3915 7.85377 27.5117 7.27085 24.4352 6.55875C22.7992 6.49375 21.1624 6.36458 19.526 6.29958C18.4789 5.84623 17.4314 4.61621 16.5148 4.03329C12.7846 1.702 3.16214 -3.34812 0.412935 3.32119C-1.35445 7.53003 3.03116 11.6738 4.53654 13.811C5.64978 15.3002 7.08947 16.9835 7.87502 18.6673C8.33329 19.7673 8.46387 20.9336 8.92214 22.099C9.96968 24.9474 10.9511 28.1208 12.3259 30.7759C13.0462 32.1355 13.8313 33.5601 14.7478 34.7901C15.2714 35.5022 16.1875 35.8264 16.3842 36.9918C15.4681 38.2869 15.4024 40.2294 14.8784 41.8482C12.5222 49.165 13.4387 58.2302 16.7768 63.6044C17.8239 65.2228 20.3116 68.7849 23.6496 67.4249C26.5951 66.2595 25.9406 62.5686 26.7914 59.331C26.9881 58.5535 26.8571 58.036 27.2497 57.5181C27.25 57.5826 27.2497 57.6476 27.2497 57.6476C28.1662 59.4606 29.0824 61.209 29.9332 63.0219C31.9626 66.1945 35.4969 69.497 38.4424 71.6987C40.0139 72.8638 41.2573 74.8713 43.221 75.5838V75.3892H43.09C42.697 74.8063 42.1082 74.5475 41.5846 74.0942C40.4065 72.9288 39.097 71.5042 38.1808 70.2091C35.432 66.5828 33.0097 62.5686 30.8498 58.4243C29.8026 56.4172 28.8861 54.2155 28.0353 52.2084C27.6423 51.4309 27.6423 50.2658 26.9877 49.8775C26.0059 51.3017 24.5662 52.5321 23.8459 54.2805C22.6029 57.0647 22.4715 60.4965 22.0133 64.0578C21.7517 64.1228 21.8823 64.0578 21.7513 64.1874C19.657 63.669 18.9368 61.5327 18.1512 59.7194C16.1875 55.1222 15.8603 47.7404 17.5623 42.4311C18.0206 41.0711 19.9843 36.7977 19.1987 35.5026C18.8062 34.2722 17.4966 33.5601 16.7768 32.5888C15.926 31.3584 15.0094 29.8046 14.4206 28.4446C12.8495 24.8187 12.0639 20.804 10.3622 17.1777C9.5767 15.4939 8.2023 13.746 7.08947 12.1922C5.84606 10.4438 4.47125 9.21338 3.4894 7.14125C3.16254 6.42915 2.70385 5.26372 3.22741 4.48662C3.35841 3.96869 3.61998 3.77452 4.14395 3.64493C4.99479 2.93242 7.41673 3.8391 8.26755 4.22745C10.6895 5.1983 12.7185 6.1054 14.7478 7.46501C15.6639 8.11252 16.6458 9.34296 17.8239 9.66672H19.1987C21.2934 10.1196 23.6496 9.7963 25.6133 10.3788C29.0827 11.4793 32.2241 13.0985 35.0391 14.8468C43.614 20.2211 50.6827 27.8621 55.4613 36.9918C56.2468 38.4806 56.5737 39.8411 57.294 41.3948C58.6688 44.5678 60.3704 47.8054 61.7448 50.9134C63.1192 53.9563 64.4284 57.0647 66.392 59.5902C67.3743 60.9494 71.3012 61.6619 73.0685 62.3744C74.3777 62.9569 76.407 63.4753 77.5852 64.1874C79.8104 65.5466 82.0361 67.1012 84.1307 68.5904C85.1782 69.3671 88.4506 70.9863 88.6473 72.2809L88.6473 72.2809Z" fill="#00546B"/>
</svg>
