<svg width="120" height="138" viewBox="0 0 120 138" fill="none" xmlns="http://www.w3.org/2000/svg">
<mask id="mask0_383_437" style="mask-type:luminance" maskUnits="userSpaceOnUse" x="1" y="34" width="118" height="70">
<path d="M1.90216 34.3146H118.122V103.683H1.90216V34.3146Z" fill="white"/>
</mask>
<g mask="url(#mask0_383_437)">
<mask id="mask1_383_437" style="mask-type:luminance" maskUnits="userSpaceOnUse" x="1" y="34" width="118" height="70">
<path d="M1.90204 69.01C1.90204 88.1543 27.9192 103.675 60.0105 103.675C92.1017 103.675 118.119 88.1543 118.119 69.01C118.119 49.8657 92.1017 34.3458 60.0105 34.3458C27.9192 34.3458 1.90204 49.8665 1.90204 69.01Z" fill="white"/>
</mask>
<g mask="url(#mask1_383_437)">
<mask id="mask2_383_437" style="mask-type:luminance" maskUnits="userSpaceOnUse" x="1" y="34" width="118" height="70">
<path d="M1.90192 69.0089C1.90192 88.1532 27.9191 103.673 60.0104 103.673C92.1016 103.673 118.119 88.1532 118.119 69.0089C118.119 49.8646 92.1016 34.3447 60.0104 34.3447C27.9191 34.3447 1.90192 49.8654 1.90192 69.0089Z" fill="white"/>
</mask>
<g mask="url(#mask2_383_437)">
<path d="M1.90192 34.3447V103.673H118.119V34.3447H1.90192Z" fill="url(#paint0_radial_383_437)"/>
</g>
</g>
</g>
<path d="M60.0106 101.1C90.8493 101.1 115.849 86.7333 115.849 69.01C115.849 51.2871 90.8493 36.92 60.0106 36.92C29.1721 36.92 4.17212 51.2871 4.17212 69.01C4.17212 86.7333 29.1721 101.1 60.0106 101.1Z" fill="#777BB3"/>
<path d="M33.4722 72.9866C36.0081 72.9866 37.9009 72.4565 39.0984 71.4114C40.2834 70.3768 41.1019 68.5842 41.5309 66.0837C41.9309 63.7463 41.7784 62.1144 41.0781 61.2339C40.3622 60.3344 38.8141 59.878 36.4769 59.878H32.4247L30.1781 72.9869H33.4722V72.9866ZM20.2188 89.1351C20.0306 89.1351 19.8522 89.0398 19.7325 88.8749C19.6725 88.7922 19.6309 88.6995 19.6078 88.596C19.5847 88.4925 19.5822 88.3883 19.6 88.2837L25.5538 53.5455C25.5606 53.5048 25.5706 53.4657 25.5838 53.4272C25.5966 53.3888 25.6122 53.3517 25.6309 53.3162C25.6494 53.281 25.6706 53.2475 25.6941 53.2163C25.7178 53.185 25.7438 53.1562 25.7716 53.1304C25.7997 53.1041 25.8294 53.0808 25.8613 53.0603C25.8928 53.0402 25.9256 53.0229 25.9597 53.0089C25.9938 52.9952 26.0288 52.9845 26.0647 52.9776C26.1003 52.9705 26.1366 52.9669 26.1728 52.9669H39.0047C43.0375 52.9669 46.0391 54.2063 47.9259 56.658C49.8225 59.1201 50.4084 62.5622 49.6666 66.8876C49.3647 68.65 48.8456 70.2866 48.1241 71.7525C47.4009 73.2194 46.4459 74.5768 45.2847 75.7875C43.8941 77.2631 42.3203 78.3333 40.6113 78.963C38.9291 79.5843 36.7694 79.8999 34.1909 79.8999H28.995L27.5113 88.5568C27.5041 88.5971 27.4944 88.6366 27.4813 88.6751C27.4684 88.7135 27.4528 88.7505 27.4341 88.7858C27.4156 88.8213 27.3944 88.8548 27.3709 88.886C27.3472 88.9173 27.3213 88.946 27.2934 88.9719C27.2653 88.9982 27.2356 89.0215 27.2041 89.042C27.1725 89.0621 27.1397 89.0794 27.1053 89.0934C27.0713 89.1074 27.0363 89.1178 27.0006 89.125C26.9647 89.1318 26.9288 89.1354 26.8925 89.1354H20.2172L20.2188 89.1351Z" fill="black"/>
<path d="M32.9447 60.5938H36.4772C39.2978 60.5938 40.2778 61.296 40.6106 61.714C41.1631 62.4087 41.2672 63.8731 40.9122 65.9489C40.5134 68.2726 39.774 69.9203 38.7143 70.8454C37.6293 71.7927 35.8656 72.2728 33.4728 72.2728H30.9443L32.9456 60.5938H32.9447ZM39.004 52.252H26.1728C26.1003 52.252 26.0281 52.2592 25.9568 52.2732C25.8853 52.2872 25.8153 52.3084 25.7468 52.3361C25.6784 52.3641 25.6128 52.3983 25.5497 52.4389C25.4865 52.4799 25.4268 52.5262 25.3709 52.5787C25.315 52.6312 25.2631 52.6887 25.2159 52.7508C25.1687 52.8134 25.1265 52.8802 25.0893 52.951C25.0522 53.0218 25.0206 53.0955 24.995 53.1724C24.969 53.2493 24.949 53.3283 24.9353 53.4092L18.9815 88.1496C18.9728 88.2014 18.9665 88.2535 18.9628 88.3056C18.959 88.3581 18.9578 88.4105 18.959 88.463C18.9603 88.5158 18.9643 88.5679 18.9706 88.62C18.9772 88.6722 18.9859 88.7235 18.9975 88.7746C19.0087 88.8256 19.0228 88.8756 19.039 88.9248C19.0553 88.974 19.0737 89.0222 19.0947 89.0689C19.1156 89.116 19.139 89.1613 19.1643 89.2051C19.1897 89.2493 19.2172 89.2914 19.2465 89.332C19.2759 89.3726 19.3075 89.4114 19.3406 89.4477C19.3737 89.4843 19.4087 89.5188 19.4453 89.5512C19.4818 89.5835 19.52 89.6134 19.5593 89.641C19.599 89.6683 19.6397 89.6935 19.6815 89.7158C19.7234 89.7381 19.7662 89.7578 19.8103 89.7751C19.854 89.792 19.8987 89.8063 19.9437 89.8178C19.989 89.8293 20.0347 89.838 20.0809 89.8437C20.1268 89.8495 20.1731 89.8523 20.2193 89.8523H26.8925C26.965 89.8523 27.0372 89.8455 27.1087 89.8311C27.1803 89.8171 27.2503 89.7963 27.3184 89.7683C27.3868 89.7406 27.4525 89.7064 27.5156 89.6655C27.5787 89.6249 27.6384 89.5785 27.6943 89.526C27.7506 89.4736 27.8022 89.4161 27.8493 89.3535C27.8968 89.291 27.939 89.2245 27.9762 89.1537C28.0134 89.0829 28.0447 89.0089 28.0706 88.932C28.0965 88.8551 28.1165 88.7764 28.1303 88.6955L29.515 80.6168H34.1912C36.8356 80.6168 39.0618 80.2897 40.8075 79.645C42.6022 78.9838 44.2543 77.8622 45.7159 76.3122C46.9247 75.0508 47.9225 73.6352 48.675 72.1035C49.4275 70.5722 49.9718 68.8638 50.2865 67.0266C51.0675 62.4734 50.4331 58.8271 48.4015 56.19C46.3897 53.5785 43.2281 52.2542 39.0053 52.2542M29.4147 73.7049H33.4737C36.164 73.7049 38.1681 73.1306 39.4847 71.9806C40.8012 70.831 41.6897 68.9119 42.1512 66.2231C42.5928 63.6413 42.3918 61.8197 41.5481 60.7581C40.7043 59.6965 39.0134 59.1657 36.4787 59.1657H31.9065L29.415 73.7045M39.0056 53.6841C42.8659 53.6841 45.6818 54.8327 47.4522 57.1305C49.2222 59.428 49.755 62.6354 49.0487 66.7535C48.7581 68.4498 48.2665 70.0005 47.5743 71.406C46.8822 72.8111 45.9765 74.0973 44.8584 75.2632C43.5259 76.6773 42.0459 77.6846 40.4168 78.2855C38.7881 78.8871 36.7137 79.1868 34.1915 79.1868H28.4759L26.8931 88.4224H20.2203L26.1743 53.6866H39.0065" fill="white"/>
<path d="M64.9665 79.8995C64.7781 79.8995 64.5997 79.8043 64.4803 79.6394C64.3606 79.4744 64.3115 79.2581 64.3478 79.0482L66.9812 63.6777C67.2319 62.2161 67.17 61.1668 66.8075 60.7233C66.5856 60.4523 65.9187 59.9981 63.9475 59.9981H59.1762L55.865 79.3206C55.8581 79.3612 55.8481 79.4007 55.8353 79.4392C55.8222 79.4776 55.8065 79.5147 55.7881 79.5499C55.7694 79.5854 55.7484 79.6185 55.7247 79.6498C55.7009 79.681 55.6753 79.7098 55.6472 79.736C55.619 79.7623 55.5894 79.7856 55.5578 79.8061C55.5262 79.8262 55.4934 79.8435 55.459 79.8575C55.425 79.8712 55.39 79.8819 55.3544 79.8888C55.3184 79.8959 55.2825 79.8995 55.2459 79.8995H48.6256C48.579 79.8995 48.5331 79.8938 48.4878 79.8823C48.4425 79.8708 48.3987 79.8535 48.3569 79.8313C48.3147 79.8086 48.2753 79.7813 48.2384 79.749C48.2019 79.7166 48.1687 79.68 48.139 79.6394C48.1097 79.5987 48.0844 79.5549 48.0631 79.5078C48.0422 79.4607 48.0259 79.4115 48.0147 79.3605C48.0031 79.3094 47.9969 79.2573 47.9953 79.2049C47.994 79.152 47.9978 79.0999 48.0065 79.0482L53.9603 44.3099C53.9675 44.2693 53.9772 44.2301 53.9903 44.1917C54.0031 44.1529 54.019 44.1162 54.0375 44.0806C54.0562 44.0454 54.0772 44.012 54.1009 43.9807C54.1244 43.9495 54.1503 43.9207 54.1784 43.8945C54.2062 43.8686 54.2362 43.8452 54.2678 43.8248C54.2994 43.8046 54.3322 43.7874 54.3662 43.7734C54.4006 43.7594 54.4356 43.7489 54.4712 43.7421C54.5072 43.7349 54.5431 43.7313 54.5794 43.7313H61.2C61.2462 43.7313 61.2922 43.7371 61.3378 43.7486C61.3831 43.7601 61.4269 43.7773 61.4687 43.7996C61.5109 43.8222 61.5503 43.8496 61.5869 43.8819C61.6237 43.9142 61.6569 43.9509 61.6862 43.9915C61.7159 44.0321 61.7412 44.076 61.7622 44.123C61.7831 44.1701 61.7994 44.2194 61.8109 44.2704C61.8225 44.3214 61.8287 44.3732 61.83 44.426C61.8315 44.4788 61.8278 44.5309 61.8187 44.5827L60.3822 52.9673H65.515C69.425 52.9673 72.0765 53.7489 73.6212 55.3571C75.1975 56.998 75.6865 59.6211 75.0812 63.1559L72.3112 79.3213C72.3043 79.3616 72.2943 79.4011 72.2815 79.4395C72.2684 79.478 72.2528 79.515 72.234 79.5506C72.2156 79.5858 72.1944 79.6192 72.1709 79.6505C72.1472 79.6818 72.1212 79.7105 72.0934 79.7367C72.0653 79.763 72.0356 79.786 72.004 79.8065C71.9725 79.827 71.9397 79.8438 71.9053 79.8579C71.8712 79.8719 71.8362 79.8823 71.8003 79.8895C71.7647 79.8963 71.7284 79.8999 71.6922 79.8999H64.9669L64.9665 79.8995Z" fill="black"/>
<path d="M61.2003 43.0154H54.5799C54.5071 43.0154 54.4349 43.0222 54.3634 43.0366C54.2918 43.0506 54.2221 43.0714 54.1537 43.0995C54.0853 43.1271 54.0196 43.1613 53.9565 43.2022C53.8934 43.2429 53.8337 43.2892 53.7778 43.3417C53.7215 43.3942 53.6699 43.4517 53.6228 43.5142C53.5753 43.5767 53.5331 43.6432 53.4959 43.714C53.459 43.7848 53.4274 43.8588 53.4015 43.9357C53.3756 44.0126 53.3559 44.0917 53.3418 44.1726L47.3881 78.9105C47.3793 78.9622 47.3731 79.0143 47.3693 79.0664C47.3653 79.1189 47.3643 79.1714 47.3656 79.2238C47.3668 79.2767 47.3706 79.3288 47.3771 79.3809C47.3834 79.433 47.3924 79.4844 47.4037 79.5354C47.4153 79.5865 47.429 79.6364 47.4453 79.6856C47.4615 79.7349 47.4803 79.783 47.5012 79.8298C47.5221 79.8768 47.5453 79.9221 47.5709 79.9663C47.5962 80.0102 47.6237 80.0526 47.6531 80.0928C47.6824 80.1334 47.714 80.1722 47.7471 80.2089C47.7803 80.2455 47.8153 80.28 47.8518 80.312C47.8884 80.3444 47.9265 80.3742 47.9659 80.4019C48.0056 80.4292 48.0462 80.4543 48.0881 80.4766C48.1299 80.4993 48.1731 80.519 48.2168 80.5359C48.2606 80.5532 48.3053 80.5672 48.3506 80.5787C48.3956 80.5902 48.4412 80.5988 48.4874 80.6046C48.5334 80.6103 48.5796 80.6132 48.6259 80.6132H55.2465C55.319 80.6132 55.3912 80.6064 55.4628 80.592C55.5343 80.578 55.6043 80.5571 55.6724 80.5291C55.7409 80.5014 55.8068 80.4673 55.8699 80.4263C55.9331 80.3857 55.9924 80.339 56.0487 80.2869C56.1046 80.2344 56.1562 80.1769 56.2037 80.1144C56.2509 80.0518 56.2931 79.9854 56.3303 79.9146C56.3674 79.8438 56.399 79.7697 56.4246 79.6928C56.4506 79.6159 56.4706 79.5369 56.4843 79.4564L59.6965 60.7117H63.9481C65.9162 60.7117 66.329 61.1886 66.3456 61.2091C66.4649 61.3543 66.6221 62.0288 66.3628 63.54L63.7293 78.9105C63.7206 78.9622 63.7143 79.0143 63.7106 79.0664C63.7068 79.1189 63.7056 79.1714 63.7068 79.2238C63.7081 79.2767 63.7121 79.3288 63.7184 79.3809C63.7249 79.433 63.7337 79.4844 63.7453 79.5354C63.7565 79.5865 63.7703 79.6364 63.7868 79.6856C63.8031 79.7349 63.8215 79.783 63.8424 79.8298C63.8634 79.8768 63.8868 79.9221 63.9121 79.9663C63.9374 80.0102 63.9649 80.0526 63.9943 80.0932C64.0237 80.1334 64.0553 80.1722 64.0884 80.2089C64.1218 80.2455 64.1565 80.28 64.1931 80.312C64.2296 80.3444 64.2678 80.3742 64.3074 80.4019C64.3468 80.4292 64.3874 80.4543 64.4293 80.4766C64.4715 80.4993 64.5143 80.519 64.5581 80.5359C64.6018 80.5532 64.6465 80.5672 64.6918 80.5787C64.7371 80.5902 64.7828 80.5988 64.8287 80.6046C64.8746 80.6103 64.9209 80.6132 64.9674 80.6132H71.6928C71.7656 80.6132 71.8374 80.6064 71.909 80.592C71.9806 80.578 72.0506 80.5571 72.119 80.5291C72.1874 80.5014 72.2531 80.4673 72.3162 80.4263C72.3793 80.3857 72.439 80.339 72.4949 80.2869C72.5512 80.2344 72.6028 80.1769 72.6499 80.1144C72.6974 80.0518 72.7396 79.9854 72.7765 79.9146C72.8137 79.8438 72.8453 79.7697 72.8712 79.6928C72.8971 79.6159 72.9168 79.5369 72.9309 79.4564L75.7009 63.2906C76.3509 59.4963 75.7949 56.6497 74.049 54.8295C72.3828 53.0944 69.5915 52.2506 65.5159 52.2506H61.1478L62.4387 44.7181C62.4478 44.6663 62.454 44.6142 62.4578 44.5618C62.4615 44.5097 62.4628 44.4572 62.4615 44.4044C62.4603 44.3519 62.4562 44.2998 62.4499 44.2477C62.4434 44.1956 62.4346 44.1442 62.4231 44.0931C62.4118 44.0421 62.3978 43.9922 62.3815 43.9429C62.3653 43.8937 62.3468 43.8455 62.3259 43.7985C62.3046 43.7517 62.2815 43.7061 62.2562 43.6622C62.2309 43.6184 62.2034 43.576 62.174 43.5354C62.1443 43.4948 62.1131 43.4563 62.0799 43.4197C62.0465 43.383 62.0118 43.3485 61.9749 43.3162C61.9384 43.2838 61.9006 43.254 61.8609 43.2267C61.8215 43.199 61.7806 43.1739 61.7387 43.1516C61.6968 43.1293 61.654 43.1095 61.6103 43.0923C61.5662 43.0754 61.5218 43.061 61.4765 43.0495C61.4312 43.038 61.3856 43.0294 61.3396 43.0236C61.2934 43.0179 61.2471 43.015 61.2009 43.015M61.2009 44.445L59.6184 53.6809H65.5162C69.2271 53.6809 71.7868 54.4155 73.1959 55.8824C74.6049 57.3498 75.0265 59.7295 74.4637 63.0182L71.6934 79.1832H64.9681L67.6015 63.8131C67.9012 62.0648 67.7909 60.872 67.2706 60.2363C66.7503 59.6002 65.6428 59.2818 63.949 59.2818H58.6568L55.2465 79.1832H48.6262L54.5799 44.445H61.2003" fill="white"/>
<path d="M85.5571 72.9873C88.0927 72.9873 89.9859 72.4572 91.1834 71.4121C92.3684 70.3775 93.1868 68.5853 93.6159 66.0844C94.0159 63.747 93.8634 62.1151 93.1631 61.2346C92.4468 60.3351 90.8987 59.8787 88.5618 59.8787H84.5096L82.2627 72.9876H85.5568L85.5571 72.9873ZM72.3031 89.1351C72.1149 89.1351 71.9365 89.0398 71.8168 88.8749C71.7568 88.7922 71.7152 88.6995 71.6921 88.596C71.669 88.4925 71.6662 88.3883 71.6843 88.2837L77.6381 53.5455C77.6449 53.5048 77.6549 53.4657 77.6677 53.4272C77.6809 53.3884 77.6965 53.3517 77.7152 53.3162C77.7337 53.281 77.7549 53.2475 77.7784 53.2163C77.8021 53.185 77.8281 53.1562 77.8559 53.13C77.884 53.1038 77.9137 53.0808 77.9452 53.0603C77.9768 53.0398 78.0099 53.0229 78.044 53.0089C78.0784 52.9949 78.1134 52.9845 78.149 52.9776C78.1849 52.9705 78.2209 52.9669 78.2571 52.9669H91.0887C95.1221 52.9669 98.1234 54.2063 100.01 56.658C101.907 59.1201 102.492 62.5618 101.751 66.8876C101.449 68.65 100.93 70.2866 100.208 71.7525C99.4849 73.2194 98.5299 74.5768 97.3687 75.7875C95.9781 77.2631 94.4043 78.3333 92.6952 78.963C91.0131 79.5843 88.8531 79.8999 86.2749 79.8999H81.0752L79.5918 88.5568C79.5849 88.5971 79.5749 88.6366 79.5621 88.6751C79.5493 88.7135 79.5334 88.7505 79.5149 88.7861C79.4962 88.8213 79.4752 88.8548 79.4515 88.886C79.4277 88.9173 79.4021 88.946 79.374 88.9723C79.3459 88.9985 79.3162 89.0219 79.2846 89.042C79.2531 89.0625 79.2202 89.0797 79.1859 89.0934C79.1518 89.1074 79.1168 89.1178 79.0809 89.125C79.0452 89.1318 79.009 89.1354 78.9727 89.1354H72.2999L72.3031 89.1351Z" fill="black"/>
<path d="M85.0296 60.5938H88.5621C91.3828 60.5938 92.3628 61.296 92.6956 61.714C93.2484 62.4087 93.3525 63.8731 92.9971 65.9485C92.5984 68.2722 91.8587 69.9203 90.7993 70.8454C89.7143 71.7927 87.9506 72.2728 85.5575 72.2728H83.0284L85.0296 60.5938ZM91.0887 52.252H78.2568C78.1843 52.252 78.1121 52.2592 78.0406 52.2732C77.9693 52.2872 77.8993 52.3084 77.8309 52.3361C77.7625 52.3641 77.6968 52.3983 77.6337 52.4389C77.5706 52.4799 77.5109 52.5262 77.455 52.5787C77.399 52.6312 77.3471 52.6887 77.3 52.7508C77.2528 52.8134 77.2106 52.8802 77.1734 52.951C77.1362 53.0218 77.1046 53.0955 77.0787 53.1724C77.0531 53.2493 77.0331 53.3283 77.0193 53.4092L71.065 88.1496C71.0562 88.2014 71.05 88.2535 71.0462 88.3056C71.0425 88.3581 71.0412 88.4105 71.0425 88.463C71.0437 88.5158 71.0478 88.5679 71.054 88.62C71.0606 88.6722 71.0693 88.7235 71.0809 88.7746C71.0921 88.8256 71.1059 88.8756 71.1225 88.9248C71.1387 88.974 71.1571 89.0222 71.1781 89.0689C71.199 89.116 71.2221 89.1613 71.2478 89.2051C71.2731 89.2493 71.3006 89.2914 71.33 89.332C71.3593 89.3726 71.3909 89.4114 71.424 89.4477C71.4571 89.4843 71.4921 89.5188 71.5287 89.5512C71.5653 89.5835 71.6034 89.6134 71.6428 89.641C71.6825 89.6683 71.7231 89.6935 71.765 89.7158C71.8068 89.7381 71.8496 89.7578 71.8937 89.7751C71.9375 89.792 71.9818 89.8063 72.0271 89.8178C72.0725 89.8293 72.1181 89.838 72.164 89.8437C72.2103 89.8495 72.2565 89.8523 72.3028 89.8523H78.9759C79.0484 89.8523 79.1206 89.8455 79.1921 89.8315C79.2637 89.8171 79.3334 89.7963 79.4018 89.7683C79.4703 89.7406 79.5359 89.7064 79.599 89.6655C79.6621 89.6249 79.7218 89.5785 79.7778 89.526C79.834 89.4736 79.8856 89.4161 79.9328 89.3535C79.9803 89.291 80.0225 89.2245 80.0596 89.1537C80.0965 89.0829 80.1281 89.0089 80.154 88.932C80.18 88.8551 80.2 88.7764 80.2137 88.6955L81.5981 80.6168H86.2743C88.9187 80.6168 91.145 80.2897 92.8906 79.645C94.6856 78.9838 96.3375 77.8622 97.7993 76.3115C99.0084 75.0508 100.004 73.6352 100.758 72.1035C101.513 70.5722 102.055 68.8638 102.37 67.0266C103.151 62.473 102.516 58.8268 100.485 56.19C98.4728 53.5785 95.3115 52.2542 91.0887 52.2542M81.4981 73.7049H85.5568C88.2471 73.7049 90.2512 73.1306 91.5678 71.9806C92.8843 70.831 93.7731 68.9119 94.2343 66.2231C94.6762 63.6413 94.4753 61.8197 93.6312 60.7581C92.7875 59.6965 91.0965 59.1657 88.5618 59.1657H83.99L81.4984 73.7045M91.0887 53.6841C94.949 53.6841 97.7653 54.8327 99.5353 57.1305C101.305 59.428 101.838 62.6354 101.132 66.7535C100.841 68.4498 100.35 70.0005 99.6575 71.406C98.9656 72.8111 98.06 74.0973 96.9418 75.2632C95.6093 76.6773 94.129 77.6846 92.5003 78.2855C90.8712 78.8871 88.7968 79.1868 86.275 79.1868H80.559L78.9765 88.4224H72.3034L78.2571 53.6841H91.089" fill="white"/>
<defs>
<radialGradient id="paint0_radial_383_437" cx="0" cy="0" r="1" gradientUnits="userSpaceOnUse" gradientTransform="translate(36.7906 46.5311) scale(76.3052 86.5322)">
<stop stop-color="#AEB2D5"/>
<stop offset="0.25" stop-color="#AEB2D5"/>
<stop offset="0.296875" stop-color="#AEB2D5"/>
<stop offset="0.300781" stop-color="#ADB1D4"/>
<stop offset="0.304688" stop-color="#ACB0D4"/>
<stop offset="0.308594" stop-color="#ACB0D3"/>
<stop offset="0.3125" stop-color="#ABAFD2"/>
<stop offset="0.316406" stop-color="#AAAED2"/>
<stop offset="0.320312" stop-color="#A9ADD1"/>
<stop offset="0.324219" stop-color="#A8ACD1"/>
<stop offset="0.328125" stop-color="#A7ABD0"/>
<stop offset="0.332031" stop-color="#A6AACF"/>
<stop offset="0.335938" stop-color="#A5A9CF"/>
<stop offset="0.339844" stop-color="#A4A9CE"/>
<stop offset="0.34375" stop-color="#A4A8CD"/>
<stop offset="0.347656" stop-color="#A3A7CD"/>
<stop offset="0.351562" stop-color="#A2A6CC"/>
<stop offset="0.355469" stop-color="#A1A5CB"/>
<stop offset="0.359375" stop-color="#A0A4CB"/>
<stop offset="0.363281" stop-color="#9FA3CA"/>
<stop offset="0.367188" stop-color="#9EA2C9"/>
<stop offset="0.371094" stop-color="#9DA1C9"/>
<stop offset="0.375" stop-color="#9CA1C8"/>
<stop offset="0.378906" stop-color="#9CA0C7"/>
<stop offset="0.382812" stop-color="#9B9FC7"/>
<stop offset="0.386719" stop-color="#9A9EC6"/>
<stop offset="0.390625" stop-color="#999DC5"/>
<stop offset="0.394531" stop-color="#989CC5"/>
<stop offset="0.398438" stop-color="#979BC4"/>
<stop offset="0.402344" stop-color="#969AC3"/>
<stop offset="0.40625" stop-color="#9599C3"/>
<stop offset="0.410156" stop-color="#9499C2"/>
<stop offset="0.414062" stop-color="#9498C1"/>
<stop offset="0.417969" stop-color="#9397C1"/>
<stop offset="0.421875" stop-color="#9296C0"/>
<stop offset="0.425781" stop-color="#9195BF"/>
<stop offset="0.429688" stop-color="#9094BF"/>
<stop offset="0.433594" stop-color="#8F93BE"/>
<stop offset="0.4375" stop-color="#8E92BD"/>
<stop offset="0.441406" stop-color="#8D91BD"/>
<stop offset="0.445312" stop-color="#8D91BC"/>
<stop offset="0.449219" stop-color="#8C90BB"/>
<stop offset="0.453125" stop-color="#8B8FBB"/>
<stop offset="0.457031" stop-color="#8A8EBA"/>
<stop offset="0.460938" stop-color="#898DB9"/>
<stop offset="0.464844" stop-color="#888CB9"/>
<stop offset="0.46875" stop-color="#878BB8"/>
<stop offset="0.472656" stop-color="#868AB7"/>
<stop offset="0.476562" stop-color="#858AB7"/>
<stop offset="0.480469" stop-color="#8589B6"/>
<stop offset="0.484375" stop-color="#8488B5"/>
<stop offset="0.488281" stop-color="#8387B5"/>
<stop offset="0.492188" stop-color="#8286B4"/>
<stop offset="0.496094" stop-color="#8185B3"/>
<stop offset="0.5" stop-color="#8084B3"/>
<stop offset="0.503906" stop-color="#7F83B2"/>
<stop offset="0.507812" stop-color="#7E82B1"/>
<stop offset="0.511719" stop-color="#7D82B1"/>
<stop offset="0.515625" stop-color="#7D81B0"/>
<stop offset="0.519531" stop-color="#7C80B0"/>
<stop offset="0.523438" stop-color="#7B7FAF"/>
<stop offset="0.527344" stop-color="#7A7EAE"/>
<stop offset="0.53125" stop-color="#797DAE"/>
<stop offset="0.535156" stop-color="#787CAD"/>
<stop offset="0.539062" stop-color="#777BAC"/>
<stop offset="0.542969" stop-color="#767AAC"/>
<stop offset="0.546875" stop-color="#767AAB"/>
<stop offset="0.550781" stop-color="#7579AA"/>
<stop offset="0.554688" stop-color="#7478AA"/>
<stop offset="0.558594" stop-color="#7377A9"/>
<stop offset="0.5625" stop-color="#7276A8"/>
<stop offset="0.566406" stop-color="#7175A8"/>
<stop offset="0.570312" stop-color="#7074A7"/>
<stop offset="0.574219" stop-color="#6F73A6"/>
<stop offset="0.578125" stop-color="#6E73A6"/>
<stop offset="0.582031" stop-color="#6E72A5"/>
<stop offset="0.585938" stop-color="#6D71A4"/>
<stop offset="0.589844" stop-color="#6C70A4"/>
<stop offset="0.59375" stop-color="#6B6FA3"/>
<stop offset="0.597656" stop-color="#6A6EA2"/>
<stop offset="0.601562" stop-color="#696DA2"/>
<stop offset="0.605469" stop-color="#686CA1"/>
<stop offset="0.609375" stop-color="#676BA0"/>
<stop offset="0.613281" stop-color="#666BA0"/>
<stop offset="0.617188" stop-color="#666A9F"/>
<stop offset="0.621094" stop-color="#65699E"/>
<stop offset="0.625" stop-color="#64689E"/>
<stop offset="0.628906" stop-color="#63679D"/>
<stop offset="0.632812" stop-color="#62669C"/>
<stop offset="0.636719" stop-color="#61659C"/>
<stop offset="0.640625" stop-color="#60649B"/>
<stop offset="0.644531" stop-color="#5F639A"/>
<stop offset="0.648438" stop-color="#5E639A"/>
<stop offset="0.652344" stop-color="#5E6299"/>
<stop offset="0.65625" stop-color="#5D6198"/>
<stop offset="0.660156" stop-color="#5C6098"/>
<stop offset="0.664062" stop-color="#5B5F97"/>
<stop offset="0.667969" stop-color="#5A5E96"/>
<stop offset="0.671875" stop-color="#595D96"/>
<stop offset="0.675781" stop-color="#585C95"/>
<stop offset="0.679688" stop-color="#575B94"/>
<stop offset="0.683594" stop-color="#575B94"/>
<stop offset="0.6875" stop-color="#565A93"/>
<stop offset="0.691406" stop-color="#555992"/>
<stop offset="0.695312" stop-color="#545892"/>
<stop offset="0.699219" stop-color="#535791"/>
<stop offset="0.703125" stop-color="#525691"/>
<stop offset="0.707031" stop-color="#515590"/>
<stop offset="0.710938" stop-color="#50548F"/>
<stop offset="0.714844" stop-color="#4F548F"/>
<stop offset="0.71875" stop-color="#4F538E"/>
<stop offset="0.722656" stop-color="#4E528D"/>
<stop offset="0.726562" stop-color="#4D518D"/>
<stop offset="0.730469" stop-color="#4C508C"/>
<stop offset="0.734375" stop-color="#4B4F8B"/>
<stop offset="0.738281" stop-color="#4A4E8B"/>
<stop offset="0.742188" stop-color="#494D8A"/>
<stop offset="0.746094" stop-color="#484C89"/>
<stop offset="1" stop-color="#484C89"/>
</radialGradient>
</defs>
</svg>
