<svg width="100" height="100" viewBox="0 0 100 100" fill="none" xmlns="http://www.w3.org/2000/svg">
<mask id="mask0_1_809" style="mask-type:luminance" maskUnits="userSpaceOnUse" x="7" y="3" width="67" height="70">
<path d="M7.07642 3.45956H73.7599V72.9994H7.07642V3.45956Z" fill="white"/>
</mask>
<g mask="url(#mask0_1_809)">
<mask id="mask1_1_809" style="mask-type:luminance" maskUnits="userSpaceOnUse" x="7" y="3" width="67" height="70">
<path d="M51.6947 3.4487C28.8922 3.4487 30.316 13.7497 30.316 13.7497L30.3412 24.4219H52.0992V27.626H21.699C21.699 27.626 7.10847 25.9021 7.10847 49.8695C7.10822 73.8388 19.8435 72.9888 19.8435 72.9888H27.4435V61.8654C27.4435 61.8654 27.0337 48.5982 39.9752 48.5982H61.5565C61.5565 48.5982 73.6795 48.8034 73.6795 36.3911V15.8685C73.6795 15.8685 75.5222 3.4487 51.6947 3.4487ZM39.6957 10.625C41.8602 10.625 43.6092 12.4479 43.6092 14.7031C43.6092 16.9586 41.8602 18.7813 39.6957 18.7813C37.5305 18.7813 35.781 16.9586 35.781 14.7031C35.781 12.4479 37.5305 10.625 39.6957 10.625Z" fill="white"/>
</mask>
<g mask="url(#mask1_1_809)">
<path d="M7.10757 3.45923V73.8392H75.5216V3.45923H7.10757Z" fill="url(#paint0_linear_1_809)"/>
</g>
</g>
<mask id="mask2_1_809" style="mask-type:luminance" maskUnits="userSpaceOnUse" x="30" y="26" width="67" height="71">
<path d="M30.304 26.9327H96.928V96.5593H30.304V26.9327Z" fill="white"/>
</mask>
<g mask="url(#mask2_1_809)">
<mask id="mask3_1_809" style="mask-type:luminance" maskUnits="userSpaceOnUse" x="30" y="26" width="67" height="71">
<path d="M52.3414 96.5336C75.1419 96.5336 73.7174 86.2307 73.7174 86.2307L73.6929 75.5578H51.9334V72.3555H82.3341C82.3341 72.3555 96.9259 74.0776 96.9259 50.1117C96.9259 26.143 84.1911 26.993 84.1911 26.993H76.5909V38.1148C76.5909 38.1148 76.9989 51.3833 64.0599 51.3833H42.4764C42.4764 51.3833 30.3529 51.1781 30.3529 63.5914V84.113C30.3529 84.113 28.5119 96.5336 52.3414 96.5336ZM64.3376 89.356C62.1749 89.356 60.4234 87.5312 60.4234 85.2781C60.4234 83.0211 62.1749 81.2 64.3376 81.2C66.5041 81.2 68.2521 83.0211 68.2521 85.2781C68.2521 87.5312 66.5041 89.356 64.3376 89.356Z" fill="white"/>
</mask>
<g mask="url(#mask3_1_809)">
<path d="M28.5123 26.1424V96.533H96.9263V26.1424H28.5123Z" fill="url(#paint1_linear_1_809)"/>
</g>
</g>
<defs>
<linearGradient id="paint0_linear_1_809" x1="7.38544" y1="3.16678" x2="78.4796" y2="70.7265" gradientUnits="userSpaceOnUse">
<stop stop-color="#387EB8"/>
<stop offset="0.125" stop-color="#387EB8"/>
<stop offset="0.140625" stop-color="#387EB8"/>
<stop offset="0.15625" stop-color="#387DB7"/>
<stop offset="0.171875" stop-color="#387DB6"/>
<stop offset="0.1875" stop-color="#387CB5"/>
<stop offset="0.203125" stop-color="#387CB4"/>
<stop offset="0.21875" stop-color="#387BB3"/>
<stop offset="0.234375" stop-color="#387BB2"/>
<stop offset="0.25" stop-color="#387AB1"/>
<stop offset="0.265625" stop-color="#387AB1"/>
<stop offset="0.28125" stop-color="#3879B0"/>
<stop offset="0.296875" stop-color="#3879AF"/>
<stop offset="0.3125" stop-color="#3878AE"/>
<stop offset="0.328125" stop-color="#3778AD"/>
<stop offset="0.34375" stop-color="#3777AC"/>
<stop offset="0.359375" stop-color="#3777AB"/>
<stop offset="0.375" stop-color="#3776AB"/>
<stop offset="0.390625" stop-color="#3776AA"/>
<stop offset="0.40625" stop-color="#3775A9"/>
<stop offset="0.421875" stop-color="#3775A8"/>
<stop offset="0.4375" stop-color="#3774A7"/>
<stop offset="0.453125" stop-color="#3774A6"/>
<stop offset="0.46875" stop-color="#3773A5"/>
<stop offset="0.484375" stop-color="#3773A4"/>
<stop offset="0.494335" stop-color="#3772A4"/>
<stop offset="0.5" stop-color="#3772A3"/>
<stop offset="0.505665" stop-color="#3772A3"/>
<stop offset="0.515625" stop-color="#3771A2"/>
<stop offset="0.53125" stop-color="#3771A2"/>
<stop offset="0.546875" stop-color="#3771A1"/>
<stop offset="0.5625" stop-color="#3770A0"/>
<stop offset="0.578125" stop-color="#37709F"/>
<stop offset="0.59375" stop-color="#376F9E"/>
<stop offset="0.609375" stop-color="#376F9D"/>
<stop offset="0.625" stop-color="#376E9D"/>
<stop offset="0.640625" stop-color="#366E9C"/>
<stop offset="0.65625" stop-color="#366D9B"/>
<stop offset="0.671875" stop-color="#366D9A"/>
<stop offset="0.6875" stop-color="#366C99"/>
<stop offset="0.703125" stop-color="#366C98"/>
<stop offset="0.71875" stop-color="#366B97"/>
<stop offset="0.734375" stop-color="#366B97"/>
<stop offset="0.75" stop-color="#366A96"/>
<stop offset="0.765625" stop-color="#366A95"/>
<stop offset="0.78125" stop-color="#366994"/>
<stop offset="0.8125" stop-color="#366994"/>
<stop offset="0.875" stop-color="#366994"/>
<stop offset="1" stop-color="#366994"/>
</linearGradient>
<linearGradient id="paint1_linear_1_809" x1="28.146" y1="26.5459" x2="100.696" y2="92.3787" gradientUnits="userSpaceOnUse">
<stop stop-color="#FFE052"/>
<stop offset="0.125" stop-color="#FFE052"/>
<stop offset="0.1875" stop-color="#FFE052"/>
<stop offset="0.21875" stop-color="#FFE052"/>
<stop offset="0.234375" stop-color="#FFDF51"/>
<stop offset="0.25" stop-color="#FFDF51"/>
<stop offset="0.265625" stop-color="#FFDE50"/>
<stop offset="0.28125" stop-color="#FFDD4F"/>
<stop offset="0.296875" stop-color="#FFDD4E"/>
<stop offset="0.3125" stop-color="#FFDC4E"/>
<stop offset="0.328125" stop-color="#FFDB4D"/>
<stop offset="0.34375" stop-color="#FFDB4C"/>
<stop offset="0.359375" stop-color="#FFDA4B"/>
<stop offset="0.375" stop-color="#FFD94B"/>
<stop offset="0.390625" stop-color="#FFD94A"/>
<stop offset="0.40625" stop-color="#FFD849"/>
<stop offset="0.421875" stop-color="#FFD748"/>
<stop offset="0.4375" stop-color="#FFD748"/>
<stop offset="0.453125" stop-color="#FFD647"/>
<stop offset="0.46875" stop-color="#FFD546"/>
<stop offset="0.482837" stop-color="#FFD545"/>
<stop offset="0.484375" stop-color="#FFD445"/>
<stop offset="0.5" stop-color="#FFD445"/>
<stop offset="0.515625" stop-color="#FFD444"/>
<stop offset="0.517163" stop-color="#FFD343"/>
<stop offset="0.53125" stop-color="#FFD343"/>
<stop offset="0.546875" stop-color="#FFD242"/>
<stop offset="0.5625" stop-color="#FFD242"/>
<stop offset="0.578125" stop-color="#FFD141"/>
<stop offset="0.59375" stop-color="#FFD040"/>
<stop offset="0.609375" stop-color="#FFD03F"/>
<stop offset="0.625" stop-color="#FFCF3F"/>
<stop offset="0.640625" stop-color="#FFCE3E"/>
<stop offset="0.65625" stop-color="#FFCE3D"/>
<stop offset="0.671875" stop-color="#FFCD3C"/>
<stop offset="0.6875" stop-color="#FFCC3C"/>
<stop offset="0.703125" stop-color="#FFCC3B"/>
<stop offset="0.71875" stop-color="#FFCB3A"/>
<stop offset="0.734375" stop-color="#FFCA39"/>
<stop offset="0.75" stop-color="#FFCA39"/>
<stop offset="0.765625" stop-color="#FFC938"/>
<stop offset="0.78125" stop-color="#FFC837"/>
<stop offset="0.796875" stop-color="#FFC836"/>
<stop offset="0.8125" stop-color="#FFC735"/>
<stop offset="0.828125" stop-color="#FFC635"/>
<stop offset="0.84375" stop-color="#FFC634"/>
<stop offset="0.859375" stop-color="#FFC533"/>
<stop offset="0.875" stop-color="#FFC432"/>
<stop offset="0.890625" stop-color="#FFC432"/>
<stop offset="0.90625" stop-color="#FFC331"/>
<stop offset="0.9375" stop-color="#FFC331"/>
<stop offset="1" stop-color="#FFC331"/>
</linearGradient>
</defs>
</svg>
